<svg xmlns="http://www.w3.org/2000/svg" version="1.1" xmlns:xlink="http://www.w3.org/1999/xlink" xmlns:svgjs="http://svgjs.dev/svgjs" width="1000" height="1000" viewBox="0 0 1000 1000"><rect width="1000" height="1000" fill="#c8c8c8"></rect><g transform="matrix(0.3684210526315789,0,0,0.3684210526315789,315.7808874638092,150.28340080971657)"><svg viewBox="0 0 130 247" data-background-color="#c8c8c8" preserveAspectRatio="xMidYMid meet" height="1900" width="1000" xmlns="http://www.w3.org/2000/svg" xmlns:xlink="http://www.w3.org/1999/xlink"><g id="tight-bounds" transform="matrix(1,0,0,1,0.0030297091987563363,-0.09999999999999432)"><svg viewBox="0 0 129.99394058160246 247.2" height="247.2" width="129.99394058160246"><g><svg viewBox="0 0 194.9859711026616 370.7906064" height="247.2" width="129.99394058160246"><g><svg viewBox="0 0 194.9859711026616 370.7906064" height="370.7906064" width="194.9859711026616"><g id="textblocktransform"><svg viewBox="0 0 194.9859711026616 370.7906064" height="370.7906064" width="194.9859711026616" id="textblock"><g><rect width="194.9859711026616" height="247.2" fill="none" stroke-width="9.018103199999999" stroke="#ffffff" data-fill-palette-color="none" data-stroke-palette-color="tertiary"></rect><rect width="194.9859711026616" height="123.5906064" y="247.2" fill="#ffffff" data-fill-palette-color="tertiary"></rect></g><g><svg viewBox="0 0 194.9859711026616 247.2" height="247.2" width="194.9859711026616"><g transform="matrix(1,0,0,1,23.607599999999998,23.607599999999998)"><svg width="147.7707711026616" viewBox="-3.75 -31.5 29.149999618530273 39.45000076293945" height="199.9848" data-palette-color="#ffffff"><path d="M8.9-29.9L8.9-29.9 8.9-6.35Q8.9 7.95 1.5 7.95L1.5 7.95Q-1.25 7.95-2.5 6.58-3.75 5.2-3.75 3.7L-3.75 3.7Q-3.75 0.6-1.9 0.6L-1.9 0.6Q-0.35 0.6 0.55 1.35L0.55 1.35Q-0.25 2.75-0.25 4.1L-0.25 4.1Q-0.25 6.75 1.95 6.75L1.95 6.75Q4.8 6.75 4.8 2.25L4.8 2.25 4.8-30Q4.8-30.6 4.1-30.6L4.1-30.6 1.75-30.6 1.75-31.5 11.95-31.5 11.95-30.6 9.6-30.6Q8.9-30.6 8.9-29.9ZM22.35-29.9L22.35-29.9 22.35-6.35Q22.35 7.95 14.95 7.95L14.95 7.95Q12.2 7.95 10.95 6.58 9.7 5.2 9.7 3.7L9.7 3.7Q9.7 0.6 11.55 0.6L11.55 0.6Q13.1 0.6 14 1.35L14 1.35Q13.2 2.75 13.2 4.1L13.2 4.1Q13.2 6.75 15.4 6.75L15.4 6.75Q18.25 6.75 18.25 2.25L18.25 2.25 18.25-30Q18.25-30.6 17.55-30.6L17.55-30.6 15.2-30.6 15.2-31.5 25.4-31.5 25.4-30.6 23.05-30.6Q22.35-30.6 22.35-29.9Z" opacity="1" transform="matrix(1,0,0,1,0,0)" fill="#ffffff" class="wordmark-text-0" data-fill-palette-color="primary" id="text-0"></path></svg></g></svg></g></svg></g></svg></g></svg></g><defs></defs></svg><rect width="129.99394058160246" height="247.2" fill="none" stroke="none" visibility="hidden"></rect></g></svg></g></svg>