<svg xmlns="http://www.w3.org/2000/svg" version="1.1" xmlns:xlink="http://www.w3.org/1999/xlink" xmlns:svgjs="http://svgjs.dev/svgjs" width="1000" height="623" viewBox="0 0 1000 623"><g transform="matrix(1,0,0,1,-0.6060606060606233,0.2522267206477409)"><svg viewBox="0 0 396 247" data-background-color="#c8c8c8" preserveAspectRatio="xMidYMid meet" height="623" width="1000" xmlns="http://www.w3.org/2000/svg" xmlns:xlink="http://www.w3.org/1999/xlink"><g id="tight-bounds" transform="matrix(1,0,0,1,0.2400000000000091,-0.09999999999999432)"><svg viewBox="0 0 395.52 247.2" height="247.2" width="395.52"><g><svg></svg></g><g><svg viewBox="0 0 395.52 247.2" height="247.2" width="395.52"><g transform="matrix(1,0,0,1,141.31850646387832,47.215199999999996)"><svg viewBox="0 0 112.88298707224334 152.7696" height="152.7696" width="112.88298707224334"><g><svg viewBox="0 0 112.88298707224334 152.7696" height="152.7696" width="112.88298707224334"><g><svg viewBox="0 0 112.88298707224334 152.7696" height="152.7696" width="112.88298707224334"><g><svg viewBox="0 0 112.88298707224334 152.7696" height="152.7696" width="112.88298707224334"><g id="textblocktransform"><svg viewBox="0 0 112.88298707224334 152.7696" height="152.7696" width="112.88298707224334" id="textblock"><g><svg viewBox="0 0 112.88298707224334 152.7696" height="152.7696" width="112.88298707224334"><g transform="matrix(1,0,0,1,0,0)"><svg width="112.88298707224334" viewBox="-3.75 -31.5 29.15 39.45" height="152.7696" data-palette-color="#ffffff"><path d="M8.9-29.9L8.9-29.9 8.9-6.35Q8.9 7.95 1.5 7.95L1.5 7.95Q-1.25 7.95-2.5 6.58-3.75 5.2-3.75 3.7L-3.75 3.7Q-3.75 0.6-1.9 0.6L-1.9 0.6Q-0.35 0.6 0.55 1.35L0.55 1.35Q-0.25 2.75-0.25 4.1L-0.25 4.1Q-0.25 6.75 1.95 6.75L1.95 6.75Q4.8 6.75 4.8 2.25L4.8 2.25 4.8-30Q4.8-30.6 4.1-30.6L4.1-30.6 1.75-30.6 1.75-31.5 11.95-31.5 11.95-30.6 9.6-30.6Q8.9-30.6 8.9-29.9ZM22.35-29.9L22.35-29.9 22.35-6.35Q22.35 7.95 14.95 7.95L14.95 7.95Q12.2 7.95 10.95 6.58 9.7 5.2 9.7 3.7L9.7 3.7Q9.7 0.6 11.55 0.6L11.55 0.6Q13.1 0.6 14 1.35L14 1.35Q13.2 2.75 13.2 4.1L13.2 4.1Q13.2 6.75 15.4 6.75L15.4 6.75Q18.25 6.75 18.25 2.25L18.25 2.25 18.25-30Q18.25-30.6 17.55-30.6L17.55-30.6 15.2-30.6 15.2-31.5 25.4-31.5 25.4-30.6 23.05-30.6Q22.35-30.6 22.35-29.9Z" opacity="1" transform="matrix(1,0,0,1,0,0)" fill="#ffffff" class="wordmark-text-0" data-fill-palette-color="primary" id="text-0"></path></svg></g></svg></g></svg></g></svg></g></svg></g></svg></g></svg></g><path d="M71.9 41.215L71.9 0 319.1 0 319.1 247.2 71.9 247.2 71.9 205.985 85.677 205.985 85.677 233.423 305.323 233.423 305.323 13.777 85.677 13.777 85.677 41.215Z" fill="#ffffff" stroke="transparent" data-fill-palette-color="primary"></path></svg></g><defs></defs></svg><rect width="395.52" height="247.2" fill="none" stroke="none" visibility="hidden"></rect></g></svg></g></svg>